<svg xmlns="http://www.w3.org/2000/svg" width="24" height="24" viewBox="0 0 24 24" class="BrowserB2Timeline1Icon-svg" data-animation-icon="true" data-animation-icon-enter-duration="0.5" data-animation-icon-playback="trigger"><style>#BrowserB2Timeline1Icon-enter-rs-1vbyeye-p1{transform-box:view-box;transform-origin:0 0;animation:BrowserB2Timeline1Icon-enter-rs-1vbyeye-p1 0.5s linear 1 forwards}@keyframes BrowserB2Timeline1Icon-enter-rs-1vbyeye-p1{0%{transform:translate(49.58333%,39.16667%);}40%{transform:translate(49.58333%,49.58333%);}80%{transform:translate(49.58333%,49.58333%);}100%{transform:translate(49.58333%,39.16667%);}}#BrowserB2Timeline1Icon-enter-rs-1vbyeye-p3{transform-box:view-box;transform-origin:0 0;animation:BrowserB2Timeline1Icon-enter-rs-1vbyeye-p3 0.5s linear 1 forwards}@keyframes BrowserB2Timeline1Icon-enter-rs-1vbyeye-p3{0%{transform:translate(30.83333%,27.91667%);}40%{transform:translate(46.05417%,34.17917%) matrix(1.17,0,0,1.17,0,0);}80%{transform:translate(46.05417%,33.97083%) matrix(1.17,0,0,1.17,0,0);}100%{transform:translate(30.79583%,27.87917%) matrix(0.99,0,0,0.99,0,0);}}#BrowserB2Timeline1Icon-idle-rs-1vbyeye-p1{transform-box:view-box;transform-origin:0 0;}#BrowserB2Timeline1Icon-idle-rs-1vbyeye-p3{transform-box:view-box;transform-origin:0 0;}[data-animation-icon-wrapper][data-animation-phase="idle"] .BrowserB2Timeline1Icon-svg *{animation:none!important}[data-animation-icon-wrapper][data-animation-phase="enter"] .BrowserB2Timeline1Icon-svg *{animation-direction:normal!important;animation-duration:500ms!important;animation-iteration-count:1!important;animation-fill-mode:forwards!important}[data-animation-icon-layer][hidden]{display:none!important}</style><g data-animation-icon-layer="idle"><path id="BrowserB2Timeline1Icon-idle-rs-1vbyeye-p0" d="M -9.05 -4.8 C -9.05 -6.512 -7.662 -7.9 -5.95 -7.9 L 5.95 -7.9 C 7.662 -7.9 9.05 -6.512 9.05 -4.8 L 9.05 4.8 C 9.05 6.512 7.662 7.9 5.95 7.9 L -5.95 7.9 C -7.662 7.9 -9.05 6.512 -9.05 4.8 L -9.05 -4.8 Z" fill="none" stroke="currentColor" stroke-width="1.8" stroke-linecap="butt" stroke-linejoin="miter" transform="matrix(1 0 0 1 11.95 12.1)"></path><path id="BrowserB2Timeline1Icon-idle-rs-1vbyeye-p1" d="M -8.5 0 L 8.5 0" fill="none" stroke="currentColor" stroke-width="1.8" stroke-linecap="square" stroke-linejoin="round" style="transform-box:view-box;transform-origin:0 0;transform:translate(49.58333%,39.16667%);"></path><path id="BrowserB2Timeline1Icon-idle-rs-1vbyeye-p2" d="M -0.9 0 L 0.9 0" fill="none" stroke="currentColor" stroke-width="1.8" stroke-linecap="round" stroke-linejoin="round" transform="matrix(1 0 0 1 6.5 6.7)"></path><path id="BrowserB2Timeline1Icon-idle-rs-1vbyeye-p3" d="M 0 -0.9 C 0.497 -0.9 0.9 -0.497 0.9 0 C 0.9 0.497 0.497 0.9 0 0.9 C -0.497 0.9 -0.9 0.497 -0.9 0 C -0.9 -0.497 -0.497 -0.9 0 -0.9 Z" fill="currentColor" style="transform-box:view-box;transform-origin:0 0;transform:translate(30.83333%,27.91667%);"></path></g><g data-animation-icon-layer="enter" hidden="true"><path id="BrowserB2Timeline1Icon-enter-rs-1vbyeye-p0" d="M -9.05 -4.8 C -9.05 -6.512 -7.662 -7.9 -5.95 -7.9 L 5.95 -7.9 C 7.662 -7.9 9.05 -6.512 9.05 -4.8 L 9.05 4.8 C 9.05 6.512 7.662 7.9 5.95 7.9 L -5.95 7.9 C -7.662 7.9 -9.05 6.512 -9.05 4.8 L -9.05 -4.8 Z" fill="none" stroke="currentColor" stroke-width="1.8" stroke-linecap="butt" stroke-linejoin="miter" transform="matrix(1 0 0 1 11.95 12.1)"></path><path id="BrowserB2Timeline1Icon-enter-rs-1vbyeye-p1" d="M -8.5 0 L 8.5 0" fill="none" stroke="currentColor" stroke-width="1.8" stroke-linecap="square" stroke-linejoin="round"></path><path id="BrowserB2Timeline1Icon-enter-rs-1vbyeye-p2" d="M -0.9 0 L 0.9 0" fill="none" stroke="currentColor" stroke-width="1.8" stroke-linecap="round" stroke-linejoin="round" transform="matrix(1 0 0 1 6.5 6.7)"><animate attributeName="d" values="M -0.9 0 L 0.9 0;M -0.817 0.125 L 0.835 0.125;M -0.733 0.25 L 0.77 0.25;M -0.65 0.375 L 0.704 0.375;M -0.567 0.5 L 0.639 0.5;M -0.483 0.625 L 0.574 0.625;M -0.4 0.75 L 0.509 0.75;M -0.317 0.875 L 0.444 0.875;M -0.233 1 L 0.379 1;M -0.15 1.125 L 0.314 1.125;M -0.067 1.25 L 0.248 1.25;M 0.017 1.375 L 0.183 1.375;M 0.1 1.5 L 0.118 1.5;M 0.1 1.5 L 0.118 1.5;M -0.067 1.25 L 0.248 1.25;M -0.233 1 L 0.379 1;M -0.4 0.75 L 0.509 0.75;M -0.567 0.5 L 0.639 0.5;M -0.733 0.25 L 0.77 0.25;M -0.9 0 L 0.9 0" keyTimes="0;0.03333;0.06667;0.1;0.13333;0.16667;0.2;0.23333;0.26667;0.3;0.33333;0.36667;0.4;0.8;0.83333;0.86667;0.9;0.93333;0.96667;1" dur="0.5s" repeatCount="1" fill="freeze"></animate><animate attributeName="stroke-width" values="1.8;2.2;2.2;1.8" keyTimes="0;0.4;0.8;1" dur="0.5s" repeatCount="1" fill="freeze"></animate></path><path id="BrowserB2Timeline1Icon-enter-rs-1vbyeye-p3" d="M 0 -0.9 C 0.497 -0.9 0.9 -0.497 0.9 0 C 0.9 0.497 0.497 0.9 0 0.9 C -0.497 0.9 -0.9 0.497 -0.9 0 C -0.9 -0.497 -0.497 -0.9 0 -0.9 Z" fill="currentColor"></path></g></svg>