<svg xmlns="http://www.w3.org/2000/svg" width="24" height="24" viewBox="0 0 24 24" class="PublisherDocsAnimatedIcon-svg" data-animation-icon="true" data-animation-icon-enter-duration="0.66667" data-animation-icon-playback="trigger"><style>[data-animation-icon-wrapper][data-animation-phase="idle"] .PublisherDocsAnimatedIcon-svg *{animation:none!important}[data-animation-icon-wrapper][data-animation-phase="enter"] .PublisherDocsAnimatedIcon-svg *{animation-direction:normal!important;animation-duration:667ms!important;animation-iteration-count:1!important;animation-fill-mode:forwards!important}[data-animation-icon-layer][hidden]{display:none!important}</style><g data-animation-icon-layer="idle"><path id="PublisherDocsAnimatedIcon-idle-rs-87opdp-mh0" d="M 1.172 -9.9 C 1.941 -9.9 2.679 -9.594 3.223 -9.051 C 3.223 -9.051 7.051 -5.223 7.051 -5.223 C 7.595 -4.679 7.9 -3.941 7.9 -3.172 C 7.9 -3.172 7.9 6 7.9 6 C 7.9 8.154 6.154 9.9 4 9.9 C 4 9.9 -4 9.9 -4 9.9 C -6.154 9.9 -7.9 8.154 -7.9 6 C -7.9 6 -7.9 -6 -7.9 -6 C -7.9 -8.154 -6.154 -9.9 -4 -9.9 C -4 -9.9 1.172 -9.9 1.172 -9.9 Z M -4 -8.1 C -5.16 -8.099 -6.1 -7.16 -6.1 -6 C -6.1 -6 -6.1 6 -6.1 6 C -6.1 7.16 -5.16 8.099 -4 8.1 C -4 8.1 4 8.1 4 8.1 C 5.16 8.1 6.1 7.16 6.1 6 C 6.1 6 6.1 -2.1 6.1 -2.1 C 6.1 -2.1 3 -2.1 3 -2.1 C 1.398 -2.1 0.1 -3.399 0.1 -5 C 0.1 -5 0.1 -8.1 0.1 -8.1 C 0.1 -8.1 -4 -8.1 -4 -8.1 Z M 1.9 -5 C 1.9 -4.393 2.393 -3.901 3 -3.9 C 3 -3.9 5.821 -3.9 5.821 -3.9 C 5.807 -3.917 5.793 -3.934 5.777 -3.949 C 5.777 -3.949 1.949 -7.777 1.949 -7.777 C 1.933 -7.793 1.917 -7.808 1.9 -7.822 C 1.9 -7.822 1.9 -5 1.9 -5 Z" fill="currentColor" fill-rule="evenodd" transform="matrix(1 0 0 1 12 12)"></path><path id="PublisherDocsAnimatedIcon-idle-rs-87opdp-mh1" d="M 2.16 0 L -1.84 0" fill="none" stroke="currentColor" stroke-width="1.8" stroke-linecap="round" stroke-linejoin="miter" transform="matrix(1 0 0 1 10.4 11.9)" opacity="1"></path><path id="PublisherDocsAnimatedIcon-idle-rs-87opdp-mh2" d="M 5.309 -0.022 L -1.877 -0.022" fill="none" stroke="currentColor" stroke-width="1.8" stroke-linecap="round" stroke-linejoin="miter" transform="matrix(1 0 0 1 10.4 16.4)" opacity="1"></path></g><g data-animation-icon-layer="enter" hidden=""><path id="PublisherDocsAnimatedIcon-enter-rs-87opdp-mh0" d="M 1.172 -9.9 C 1.941 -9.9 2.679 -9.594 3.223 -9.051 C 3.223 -9.051 7.051 -5.223 7.051 -5.223 C 7.595 -4.679 7.9 -3.941 7.9 -3.172 C 7.9 -3.172 7.9 6 7.9 6 C 7.9 8.154 6.154 9.9 4 9.9 C 4 9.9 -4 9.9 -4 9.9 C -6.154 9.9 -7.9 8.154 -7.9 6 C -7.9 6 -7.9 -6 -7.9 -6 C -7.9 -8.154 -6.154 -9.9 -4 -9.9 C -4 -9.9 1.172 -9.9 1.172 -9.9 Z M -4 -8.1 C -5.16 -8.099 -6.1 -7.16 -6.1 -6 C -6.1 -6 -6.1 6 -6.1 6 C -6.1 7.16 -5.16 8.099 -4 8.1 C -4 8.1 4 8.1 4 8.1 C 5.16 8.1 6.1 7.16 6.1 6 C 6.1 6 6.1 -2.1 6.1 -2.1 C 6.1 -2.1 3 -2.1 3 -2.1 C 1.398 -2.1 0.1 -3.399 0.1 -5 C 0.1 -5 0.1 -8.1 0.1 -8.1 C 0.1 -8.1 -4 -8.1 -4 -8.1 Z M 1.9 -5 C 1.9 -4.393 2.393 -3.901 3 -3.9 C 3 -3.9 5.821 -3.9 5.821 -3.9 C 5.807 -3.917 5.793 -3.934 5.777 -3.949 C 5.777 -3.949 1.949 -7.777 1.949 -7.777 C 1.933 -7.793 1.917 -7.808 1.9 -7.822 C 1.9 -7.822 1.9 -5 1.9 -5 Z" fill="currentColor" fill-rule="evenodd" transform="matrix(1 0 0 1 12 12)"></path><path id="PublisherDocsAnimatedIcon-enter-rs-87opdp-mh1" d="M 2.16 0 L -1.84 0" fill="none" stroke="currentColor" stroke-width="1.8" stroke-linecap="round" stroke-linejoin="miter" transform="matrix(1 0 0 1 10.4 11.9)"><animate attributeName="d" values="M 2.16 0 L -1.84 0;M 2.16 0 L -1.84 0;M -1.762 0 L -1.84 0;M -1.762 0 L -1.84 0;M -1.464 0 L -1.84 0;M -0.82 0 L -1.84 0;M 0.108 0 L -1.84 0;M 0.91 0 L -1.84 0;M 1.447 0 L -1.84 0;M 1.788 0 L -1.84 0;M 1.997 0 L -1.84 0;M 2.114 0 L -1.84 0;M 2.16 0 L -1.84 0;M 2.16 0 L -1.84 0" keyTimes="0;0.15;0.175;0.2;0.225;0.25;0.275;0.3;0.325;0.35;0.375;0.4;0.425;1" dur="0.66667s" repeatCount="1" fill="freeze"></animate><animate attributeName="opacity" values="1;1;0;0;1;1" keyTimes="0;0.125;0.15;0.175;0.2;1" dur="0.66667s" repeatCount="1" fill="freeze"></animate><animate attributeName="stroke-opacity" values="1;0.9255;0.5922;0.2392;0.0745;0.0078;0.0078;1;1" keyTimes="0;0.025;0.05;0.075;0.1;0.125;0.15;0.175;1" dur="0.66667s" repeatCount="1" fill="freeze" calcMode="discrete"></animate></path><path id="PublisherDocsAnimatedIcon-enter-rs-87opdp-mh2" d="M 5.309 -0.022 L -1.877 -0.022" fill="none" stroke="currentColor" stroke-width="1.8" stroke-linecap="round" stroke-linejoin="miter" transform="matrix(1 0 0 1 10.4 16.4)"><animate attributeName="d" values="M 5.309 -0.022 L -1.877 -0.022;M 5.309 -0.022 L -1.877 -0.022;M -1.705 -0.022 L -1.877 -0.022;M -1.705 -0.022 L -1.877 -0.022;M -1.027 -0.022 L -1.877 -0.022;M 0.431 -0.022 L -1.877 -0.022;M 2.256 -0.022 L -1.877 -0.022;M 3.598 -0.022 L -1.877 -0.022;M 4.428 -0.022 L -1.877 -0.022;M 4.923 -0.022 L -1.877 -0.022;M 5.194 -0.022 L -1.877 -0.022;M 5.309 -0.022 L -1.877 -0.022;M 5.309 -0.022 L -1.877 -0.022" keyTimes="0;0.35;0.375;0.575;0.6;0.625;0.65;0.675;0.7;0.725;0.75;0.775;1" dur="0.66667s" repeatCount="1" fill="freeze"></animate><animate attributeName="opacity" values="1;1;0;0;1;1" keyTimes="0;0.125;0.15;0.55;0.575;1" dur="0.66667s" repeatCount="1" fill="freeze"></animate><animate attributeName="stroke-opacity" values="1;0.9255;0.5922;0.2392;0.0745;0.0078;0.0078;1;1" keyTimes="0;0.025;0.05;0.075;0.1;0.125;0.35;0.375;1" dur="0.66667s" repeatCount="1" fill="freeze" calcMode="discrete"></animate></path></g></svg>