<svg xmlns="http://www.w3.org/2000/svg" width="24" height="24" viewBox="0 0 24 24" class="Mykimi5Timeline1Icon-svg" data-animation-icon="true" data-animation-icon-enter-duration="0.83333" data-animation-icon-playback="trigger"><style>[data-animation-icon-wrapper][data-animation-phase="idle"] .Mykimi5Timeline1Icon-svg *{animation:none!important}[data-animation-icon-wrapper][data-animation-phase="enter"] .Mykimi5Timeline1Icon-svg *{animation-direction:normal!important;animation-duration:833ms!important;animation-iteration-count:1!important;animation-fill-mode:forwards!important}[data-animation-icon-layer][hidden]{display:none!important}</style><g data-animation-icon-layer="idle"><path id="Mykimi5Timeline1Icon-idle-rs-1h71r5h-mh0" d="M 0 -9 C 4.971 -9 9 -4.971 9 0 C 9 4.971 4.971 9 0 9 C -4.971 9 -9 4.971 -9 0 C -9 -4.971 -4.971 -9 0 -9 Z" fill="none" stroke="currentColor" stroke-width="1.8" stroke-linecap="butt" stroke-linejoin="miter" transform="matrix(1 0 0 1 12 12)"></path><path id="Mykimi5Timeline1Icon-idle-rs-1h71r5h-mh1" d="M 0 -1 L 0 0 L 0 1" fill="none" stroke="currentColor" stroke-width="2" stroke-linecap="round" stroke-linejoin="round" transform="matrix(1 0 0 1 11 10)" opacity="1"></path><path id="Mykimi5Timeline1Icon-idle-rs-1h71r5h-mh2" d="M 0 -1 L 0 0 L 0 1" fill="none" stroke="currentColor" stroke-width="2" stroke-linecap="round" stroke-linejoin="round" transform="matrix(1 0 0 1 16 10)" opacity="1"></path></g><g data-animation-icon-layer="enter" hidden="true"><path id="Mykimi5Timeline1Icon-enter-rs-1h71r5h-mh0" d="M 0 -9 C 4.971 -9 9 -4.971 9 0 C 9 4.971 4.971 9 0 9 C -4.971 9 -9 4.971 -9 0 C -9 -4.971 -4.971 -9 0 -9 Z" fill="none" stroke="currentColor" stroke-width="1.8" stroke-linecap="butt" stroke-linejoin="miter" transform="matrix(1 0 0 1 12 12)"></path><path id="Mykimi5Timeline1Icon-enter-rs-1h71r5h-mh1" d="M 0 -1 L 0 0 L 0 1" fill="none" stroke="currentColor" stroke-width="2" stroke-linecap="round" stroke-linejoin="round" transform="matrix(1 0 0 1 11 10)"><animate attributeName="d" values="M 0 -1 L 0 0 L 0 1;M 0 -1 L 0 0 L 0 1;M 0 -0.75 L 0 0 L 0 0.75;M 0 -0.5 L 0 0 L 0 0.5;M 0 -0.25 L 0 0 L 0 0.25;M 0 -0.25 L 0 0 L 0 0.25;M 0 -0.2 L 0 0 L 0 0.2;M 0 -0.2 L 0 0 L 0 0.2;M 0 -0.4 L 0 0 L 0 0.4;M 0 -0.6 L 0 0 L 0 0.6;M 0 -0.8 L 0 0 L 0 0.8;M 0 -1 L 0 0 L 0 1;M 0 -1 L 0 0 L 0 1;M 0 -0.75 L 0 0 L 0 0.75;M 0 -0.5 L 0 0 L 0 0.5;M 0 -0.25 L 0 0 L 0 0.25;M 0 -0.25 L 0 0 L 0 0.25;M 0 0 L 0 0 L 0 0;M 0 0 L 0 0 L 0 0;M 0 -0.2 L 0 0 L 0 0.2;M 0 -0.4 L 0 0 L 0 0.4;M 0 -0.6 L 0 0 L 0 0.6;M 0 -0.8 L 0 0 L 0 0.8;M 0 -1 L 0 0 L 0 1;M 0 -1 L 0 0 L 0 1" keyTimes="0;0.1;0.12;0.14;0.16;0.22;0.24;0.28;0.3;0.32;0.34;0.36;0.56;0.58;0.6;0.62;0.66;0.68;0.72;0.74;0.76;0.78;0.8;0.82;1" dur="0.83333s" repeatCount="1" fill="freeze"></animate><animate attributeName="opacity" values="1;1;0;0;1;1;0;0;1;1" keyTimes="0;0.16;0.18;0.26;0.28;0.62;0.64;0.7;0.72;1" dur="0.83333s" repeatCount="1" fill="freeze"></animate></path><path id="Mykimi5Timeline1Icon-enter-rs-1h71r5h-mh2" d="M 0 -1 L 0 0 L 0 1" fill="none" stroke="currentColor" stroke-width="2" stroke-linecap="round" stroke-linejoin="round" transform="matrix(1 0 0 1 16 10)"><animate attributeName="d" values="M 0 -1 L 0 0 L 0 1;M 0 -1 L 0 0 L 0 1;M 0 -0.75 L 0 0 L 0 0.75;M 0 -0.5 L 0 0 L 0 0.5;M 0 -0.25 L 0 0 L 0 0.25;M 0 -0.25 L 0 0 L 0 0.25;M 0 -0.2 L 0 0 L 0 0.2;M 0 -0.2 L 0 0 L 0 0.2;M 0 -0.4 L 0 0 L 0 0.4;M 0 -0.6 L 0 0 L 0 0.6;M 0 -0.8 L 0 0 L 0 0.8;M 0 -1 L 0 0 L 0 1;M 0 -1 L 0 0 L 0 1;M 0 -0.75 L 0 0 L 0 0.75;M 0 -0.5 L 0 0 L 0 0.5;M 0 -0.25 L 0 0 L 0 0.25;M 0 -0.25 L 0 0 L 0 0.25;M 0 0 L 0 0 L 0 0;M 0 0 L 0 0 L 0 0;M 0 -0.2 L 0 0 L 0 0.2;M 0 -0.4 L 0 0 L 0 0.4;M 0 -0.6 L 0 0 L 0 0.6;M 0 -0.8 L 0 0 L 0 0.8;M 0 -1 L 0 0 L 0 1;M 0 -1 L 0 0 L 0 1" keyTimes="0;0.1;0.12;0.14;0.16;0.22;0.24;0.28;0.3;0.32;0.34;0.36;0.56;0.58;0.6;0.62;0.66;0.68;0.72;0.74;0.76;0.78;0.8;0.82;1" dur="0.83333s" repeatCount="1" fill="freeze"></animate><animate attributeName="opacity" values="1;1;0;0;1;1;0;0;1;1" keyTimes="0;0.16;0.18;0.26;0.28;0.62;0.64;0.7;0.72;1" dur="0.83333s" repeatCount="1" fill="freeze"></animate></path></g></svg>