<svg xmlns="http://www.w3.org/2000/svg" width="24" height="24" viewBox="0 0 24 24" class="NewChatAnimatedIcon-svg" data-animation-icon="true" data-animation-icon-enter-duration="0.41667" data-animation-icon-playback="trigger"><style>#NewChatAnimatedIcon-svg-rs-ew8n6j-p1{transform-box:view-box;transform-origin:0 0;animation:NewChatAnimatedIcon-svg-rs-ew8n6j-p1 0.4167s linear 1 forwards}@keyframes NewChatAnimatedIcon-svg-rs-ew8n6j-p1{0%{transform:translate(47.91667%,47.91667%);}8%{transform:translate(47.92083%,47.83333%) rotate(1.1795deg) scale(1.02022);}12%{transform:translate(47.9625%,47.75%) rotate(2.8374deg) scale(1.03026);}20%{transform:translate(48.175%,47.50417%) rotate(8.8167deg) scale(1.05041);}24%{transform:translate(48.36667%,47.3375%) rotate(13.4726deg) scale(1.06017);}32%{transform:translate(48.9625%,46.99167%) rotate(25.9719deg) scale(1.08008);}48%{transform:translate(50.62083%,46.75833%) rotate(55.8418deg) scale(1.12025);}52%{transform:translate(50.97917%,46.81667%) rotate(62.0737deg) scale(1.12953);}60%{transform:translate(51.54583%,46.98333%) rotate(72.1167deg) scale(1.14954);}68%{transform:translate(51.85833%,47.275%) rotate(79.3018deg) scale(1.12048);}76%{transform:translate(52.03333%,47.5125%) rotate(84.2633deg) scale(1.09046);}88%{transform:translate(52.12083%,47.76667%) rotate(88.52deg) scale(1.04535);}100%{transform:translate(52.08333%,47.91667%) rotate(90deg);}}[data-animation-icon-wrapper][data-animation-phase="idle"] .NewChatAnimatedIcon-svg *{animation:none!important}[data-animation-icon-wrapper][data-animation-phase="enter"] .NewChatAnimatedIcon-svg *{animation-direction:normal!important;animation-duration:417ms!important;animation-iteration-count:1!important;animation-fill-mode:forwards!important}</style><path id="NewChatAnimatedIcon-svg-rs-ew8n6j-p0" d="M 0 -9.9 C -5.468 -9.9 -9.9 -5.468 -9.9 0 C -9.9 1.923 -9.351 3.719 -8.402 5.239 C -8.402 5.239 -9.483 7.821 -9.483 7.821 C -9.896 8.809 -9.171 9.9 -8.099 9.9 C -8.099 9.9 0 9.9 0 9.9 C 5.468 9.9 9.9 5.468 9.9 0 C 9.9 -5.468 5.468 -9.9 0 -9.9 Z M -8.1 0 C -8.1 -4.474 -4.474 -8.1 0 -8.1 C 4.473 -8.1 8.1 -4.474 8.1 0 C 8.1 4.473 4.473 8.1 -0.001 8.1 C -0.001 8.1 -7.648 8.1 -7.648 8.1 L -6.365 5.035 C -6.365 5.035 -6.648 4.629 -6.648 4.629 C -7.563 3.317 -8.1 1.723 -8.1 0 Z" transform="matrix(1 0 0 1 12 12)" fill="currentColor" fill-opacity="0.902" fill-rule="evenodd"></path><path id="NewChatAnimatedIcon-svg-rs-ew8n6j-p1" d="M 3.6 0.5 L -2.6 0.5 M 0.5 -2.573 L 0.5 3.573" fill="none" stroke="currentColor" stroke-width="1.8" stroke-linecap="round" style="transform-box:view-box;transform-origin:0 0;transform:translate(47.91667%,47.91667%)"></path></svg>